<?xml version="1.0" encoding="UTF-8"?>
<svg viewBox="0 0 1560 1220" xmlns="http://www.w3.org/2000/svg" aria-label="Revit workflow topology v3">
    30|      <defs>
    31|        <marker id="arr-gray" markerWidth="10" markerHeight="7" refX="9" refY="3.5" orient="auto"><polygon points="0 0,10 3.5,0 7" fill="#94a3b8"/></marker>
    32|        <marker id="arr-cyan" markerWidth="10" markerHeight="7" refX="9" refY="3.5" orient="auto"><polygon points="0 0,10 3.5,0 7" fill="#22d3ee"/></marker>
    33|        <marker id="arr-emerald" markerWidth="10" markerHeight="7" refX="9" refY="3.5" orient="auto"><polygon points="0 0,10 3.5,0 7" fill="#34d399"/></marker>
    34|        <marker id="arr-amber" markerWidth="10" markerHeight="7" refX="9" refY="3.5" orient="auto"><polygon points="0 0,10 3.5,0 7" fill="#fbbf24"/></marker>
    35|        <marker id="arr-rose" markerWidth="10" markerHeight="7" refX="9" refY="3.5" orient="auto"><polygon points="0 0,10 3.5,0 7" fill="#fb7185"/></marker>
    36|        <pattern id="grid" width="40" height="40" patternUnits="userSpaceOnUse"><path d="M 40 0 L 0 0 0 40" fill="none" stroke="#1e293b" stroke-width="0.5"/></pattern>
    37|      </defs>
    38|
    39|      <rect x="0" y="0" width="1560" height="1220" fill="#020617"/>
    40|      <rect x="0" y="0" width="1560" height="1220" fill="url(#grid)"/>
    41|
    42|      <!-- Main region -->
    43|      <rect x="16" y="16" width="1528" height="1188" rx="16" fill="rgba(251,191,36,0.04)" stroke="#fbbf24" stroke-width="1" stroke-dasharray="8,4"/>
    44|      <text x="32" y="36" fill="#fbbf24" font-size="10" font-weight="700">Revit Dev Infra Region</text>
    45|
    46|      <!-- Top flow row -->
    47|      <rect x="40" y="60" width="150" height="80" rx="8" fill="#0f172a"/>
    48|      <rect x="40" y="60" width="150" height="80" rx="8" fill="rgba(30,41,59,.5)" stroke="#94a3b8" stroke-width="1.5"/>
    49|      <text x="115" y="91" text-anchor="middle" class="white" font-size="12" font-weight="700">Roky</text>
    50|      <text x="115" y="110" text-anchor="middle" class="tiny">Feishu DM</text>
    51|
    52|      <rect x="220" y="45" width="220" height="110" rx="8" fill="#0f172a"/>
    53|      <rect x="220" y="45" width="220" height="110" rx="8" fill="rgba(8,51,68,.38)" stroke="#22d3ee" stroke-width="1.5"/>
    54|      <text x="330" y="74" text-anchor="middle" class="white" font-size="12" font-weight="700">Hermes</text>
    55|      <text x="330" y="92" text-anchor="middle" class="tiny">需求分析 / Wiki / Spec</text>
    56|      <text x="330" y="108" text-anchor="middle" class="tiny">触发 build / 审核门禁</text>
    57|      <text x="330" y="126" text-anchor="middle" fill="#fb7185" font-size="8">红线：不直改源码</text>
    58|
    59|      <rect x="470" y="45" width="200" height="110" rx="8" fill="#0f172a"/>
    60|      <rect x="470" y="45" width="200" height="110" rx="8" fill="rgba(6,78,59,.32)" stroke="#34d399" stroke-width="1.5"/>
    61|      <text x="570" y="74" text-anchor="middle" class="white" font-size="12" font-weight="700">Claude Code</text>
    62|      <text x="570" y="92" text-anchor="middle" class="tiny">编码 + 代码审查</text>
    63|      <text x="570" y="108" text-anchor="middle" class="tiny">仅受控委托</text>
    64|      <text x="570" y="126" text-anchor="middle" fill="#fbbf24" font-size="8">ACP 链路待解除 429</text>
    65|
    66|      <rect x="700" y="45" width="220" height="110" rx="8" fill="#0f172a"/>
    67|      <rect x="700" y="45" width="220" height="110" rx="8" fill="rgba(120,53,15,.26)" stroke="#fbbf24" stroke-width="1.5"/>
    68|      <text x="810" y="74" text-anchor="middle" class="white" font-size="12" font-weight="700">Ubuntu Workspace</text>
    69|      <text x="810" y="92" text-anchor="middle" class="tiny">~/revit-plugin-dev</text>
    70|      <text x="810" y="108" text-anchor="middle" class="tiny">git push 源头 / build.sh</text>
    71|      <text x="810" y="126" text-anchor="middle" fill="#94a3b8" font-size="8">只负责思考与提交，不本地编译 WPF</text>
    72|
    73|      <rect x="950" y="45" width="240" height="110" rx="8" fill="#0f172a"/>
    74|      <rect x="950" y="45" width="240" height="110" rx="8" fill="rgba(76,29,149,.30)" stroke="#a78bfa" stroke-width="1.5"/>
    75|      <text x="1070" y="74" text-anchor="middle" class="white" font-size="12" font-weight="700">GitLab CE</text>
    76|      <text x="1070" y="92" text-anchor="middle" class="tiny">source hub / sync hub</text>
    77|      <text x="1070" y="108" text-anchor="middle" class="tiny">.gitlab-ci.yml + Runner 目标态</text>
    78|      <text x="1070" y="126" text-anchor="middle" fill="#fbbf24" font-size="8">当前：无 CI/CD</text>
    79|
    80|      <rect x="1220" y="45" width="300" height="110" rx="8" fill="#0f172a"/>
    81|      <rect x="1220" y="45" width="300" height="110" rx="8" fill="rgba(120,53,15,.26)" stroke="#fbbf24" stroke-width="1.5"/>
    82|      <text x="1370" y="74" text-anchor="middle" class="white" font-size="12" font-weight="700">Windows Build Host</text>
    83|      <text x="1370" y="92" text-anchor="middle" class="tiny">C:/Projects / build + deploy</text>
    84|      <text x="1370" y="108" text-anchor="middle" class="tiny">只 pull + 编译 + Copy-Item</text>
    85|      <text x="1370" y="126" text-anchor="middle" fill="#fbbf24" font-size="8">Revit 2026 smoke 手工验证</text>
    86|
    87|      <!-- Support row -->
    88|      <rect x="240" y="215" width="300" height="100" rx="8" fill="#0f172a"/>
    89|      <rect x="240" y="215" width="300" height="100" rx="8" fill="rgba(76,29,149,.24)" stroke="#a78bfa" stroke-width="1.5"/>
    90|      <text x="390" y="242" text-anchor="middle" class="white" font-size="12" font-weight="700">Knowledge Base</text>
    91|      <text x="390" y="260" text-anchor="middle" class="tiny">~/wiki-revit/raw · entities</text>
    92|      <text x="390" y="276" text-anchor="middle" class="tiny">skills/revit / GBrain 索引</text>
    93|      <text x="390" y="292" text-anchor="middle" fill="#34d399" font-size="8">查 Wiki 后再写代码</text>
    94|
    95|      <rect x="950" y="215" width="320" height="100" rx="8" fill="#0f172a"/>
    96|      <rect x="950" y="215" width="320" height="100" rx="8" fill="rgba(6,78,59,.18)" stroke="#34d399" stroke-width="1.5" stroke-dasharray="6,3"/>
    97|      <text x="1110" y="242" text-anchor="middle" fill="#34d399" font-size="12" font-weight="700">Target CI/CD</text>
    98|      <text x="1110" y="260" text-anchor="middle" class="tiny">Runner → build → test → deploy</text>
    99|      <text x="1110" y="276" text-anchor="middle" class="tiny">替代纯手工 build.sh</text>
   100|      <text x="1110" y="292" text-anchor="middle" fill="#fbbf24" font-size="8">前提：Windows Runner 落地</text>
   101|
   102|      <rect x="1220" y="205" width="300" height="80" rx="8" fill="#0f172a"/>
   103|      <rect x="1220" y="205" width="300" height="80" rx="8" fill="rgba(120,53,15,.22)" stroke="#fbbf24" stroke-width="1.5"/>
   104|      <text x="1370" y="233" text-anchor="middle" class="white" font-size="12" font-weight="700">Revit Addins 2026</text>
   105|      <text x="1370" y="251" text-anchor="middle" class="tiny">SuperRoky.addin / FmRoky.addin</text>
   106|      <text x="1370" y="267" text-anchor="middle" class="tiny">DLL + icon + config</text>
   107|
   108|      <rect x="1220" y="320" width="300" height="90" rx="8" fill="#0f172a"/>
   109|      <rect x="1220" y="320" width="300" height="90" rx="8" fill="rgba(30,41,59,.45)" stroke="#94a3b8" stroke-width="1.5"/>
   110|      <text x="1370" y="347" text-anchor="middle" class="white" font-size="12" font-weight="700">Revit 2026</text>
   111|      <text x="1370" y="365" text-anchor="middle" class="tiny">启动 / 加载 / 点击 smoke</text>
   112|      <text x="1370" y="381" text-anchor="middle" class="tiny">验证命令、UI、日志</text>
   113|
   114|      <!-- Governance panels -->
   115|      <rect x="40" y="465" width="470" height="280" rx="10" fill="#0f172a"/>
   116|      <rect x="40" y="465" width="470" height="280" rx="10" fill="rgba(136,19,55,.18)" stroke="#fb7185" stroke-width="1.5"/>
   117|      <text x="275" y="493" text-anchor="middle" fill="#fb7185" font-size="12" font-weight="700">10 条红线总览</text>
   118|      <line x1="56" y1="505" x2="494" y2="505" stroke="#fb7185" stroke-width="0.7" stroke-dasharray="3,3"/>
   119|
   120|      <g font-size="8" fill="#cbd5e1">
   121|        <text x="58" y="528">1. 需求先过 spec 闸门</text>
   122|        <text x="58" y="548">2. Hermes 不直接改 Revit 源码</text>
   123|        <text x="58" y="568">3. 手动 commit 优先，auto-commit 限 2 次</text>
   124|        <text x="58" y="588">4. SuperRoky 只走 build.sh</text>
   125|        <text x="58" y="608">5. FmRoky 只走 build-fmroky.sh</text>
   126|        <text x="58" y="628">6. git 失败立即中止</text>
   127|        <text x="58" y="648">7. git 失败默认禁止 scp 绕过</text>
   128|        <text x="58" y="668">8. 写代码前先查 Wiki/API</text>
   129|        <text x="58" y="688">9. 图标三处同步</text>
   130|        <text x="58" y="708">10. 修完 bug 要回收踩坑</text>
   131|      </g>
   132|
   133|      <rect x="540" y="465" width="470" height="280" rx="10" fill="#0f172a"/>
   134|      <rect x="540" y="465" width="470" height="280" rx="10" fill="rgba(251,191,36,.14)" stroke="#fbbf24" stroke-width="1.5"/>
   135|      <text x="775" y="493" text-anchor="middle" fill="#fbbf24" font-size="12" font-weight="700">P0 / P1 / P2 治理分区</text>
   136|      <line x1="556" y1="505" x2="994" y2="505" stroke="#fbbf24" stroke-width="0.7" stroke-dasharray="3,3"/>
   137|      <g font-size="8">
   138|        <text x="556" y="530" fill="#fb7185" font-weight="700">P0</text>
   139|        <text x="592" y="530" fill="#cbd5e1">阻断发布：无 Runner、build 失败、DLL 锁、git 断链</text>
   140|        <text x="556" y="552" fill="#fbbf24" font-weight="700">P1</text>
   141|        <text x="592" y="552" fill="#cbd5e1">高优先级：无 spec、commit 语义化破窗、无自动测试、手工 smoke 过多</text>
   142|        <text x="556" y="574" fill="#22d3ee" font-weight="700">P2</text>
   143|        <text x="592" y="574" fill="#cbd5e1">优化项：文档结构、知识库索引、图表排版、分支治理</text>
   144|      </g>
   145|      <rect x="556" y="602" width="408" height="96" rx="8" fill="rgba(15,23,42,.8)" stroke="#1e293b" stroke-width="1"/>
   146|      <text x="760" y="626" text-anchor="middle" fill="#94a3b8" font-size="9">原则：问题要挂回受影响模块，不要堆成孤岛</text>
   147|      <text x="760" y="644" text-anchor="middle" fill="#94a3b8" font-size="9">目标：从“人工救火”转向“门禁治理”</text>
   148|      <text x="760" y="662" text-anchor="middle" fill="#94a3b8" font-size="9">落地：Runner / spec / 审计 / smoke / 归档</text>
   149|
   150|      <rect x="1040" y="465" width="480" height="280" rx="10" fill="#0f172a"/>
   151|      <rect x="1040" y="465" width="480" height="280" rx="10" fill="rgba(6,78,59,.14)" stroke="#34d399" stroke-width="1.5" stroke-dasharray="6,3"/>
   152|      <text x="1280" y="493" text-anchor="middle" fill="#34d399" font-size="12" font-weight="700">当前态 → 目标态</text>
   153|      <line x1="1056" y1="505" x2="1504" y2="505" stroke="#34d399" stroke-width="0.7" stroke-dasharray="3,3"/>
   154|      <g font-size="8">
   155|        <text x="1058" y="532" fill="#94a3b8">当前：Hermes 编排 + Claude Code 受控委托 + Windows 手工 smoke</text>
   156|        <text x="1058" y="552" fill="#94a3b8">当前：GitLab 仅做 sync hub，无 Runner</text>
   157|        <text x="1058" y="572" fill="#94a3b8">目标：Runner 触发 build / test / deploy / notify</text>
   158|        <text x="1058" y="592" fill="#94a3b8">目标：spec 落地到 docs/plans，commit 语义化恢复</text>
   159|        <text x="1058" y="612" fill="#94a3b8">目标：问题面板可追踪，红线变成可审计门禁</text>
   160|      </g>
   161|      <rect x="1056" y="640" width="448" height="66" rx="8" fill="rgba(15,23,42,.8)" stroke="#1e293b" stroke-width="1"/>
   162|      <text x="1280" y="666" text-anchor="middle" fill="#fbbf24" font-size="9">重点：把“建议新增”改成“明确架构层”，但先补 Runner 和 spec 门禁</text>
   163|      <text x="1280" y="684" text-anchor="middle" fill="#94a3b8" font-size="8">别把问题写成口号，图里要看得出谁负责、谁阻断、谁能放行</text>
   164|
   165|      <!-- Flows -->
   166|      <path d="M 190 100 L 218 100" fill="none" stroke="#22d3ee" stroke-width="1.6" marker-end="url(#arr-cyan)"/>
   167|      <text x="204" y="90" text-anchor="middle" fill="#94a3b8" font-size="8">需求</text>
   168|
   169|      <path d="M 440 100 L 468 100" fill="none" stroke="#22d3ee" stroke-width="1.6" marker-end="url(#arr-cyan)"/>
   170|      <text x="454" y="90" text-anchor="middle" fill="#94a3b8" font-size="8">spec</text>
   171|
   172|      <path d="M 670 100 L 698 100" fill="none" stroke="#34d399" stroke-width="1.6" marker-end="url(#arr-emerald)"/>
   173|      <text x="684" y="90" text-anchor="middle" fill="#94a3b8" font-size="8">delegate</text>
   174|
   175|      <path d="M 920 100 L 948 100" fill="none" stroke="#fbbf24" stroke-width="1.6" marker-end="url(#arr-amber)"/>
   176|      <text x="934" y="90" text-anchor="middle" fill="#fbbf24" font-size="8">push</text>
   177|
   178|      <path d="M 1190 100 L 1220 100" fill="none" stroke="#fbbf24" stroke-width="1.6" marker-end="url(#arr-amber)"/>
   179|      <text x="1206" y="90" text-anchor="middle" fill="#fbbf24" font-size="8">pull / build</text>
   180|
   181|      <path d="M 1370 155 L 1370 203" fill="none" stroke="#fbbf24" stroke-width="1.6" marker-end="url(#arr-amber)"/>
   182|      <text x="1383" y="181" fill="#fbbf24" font-size="8">deploy</text>
   183|
   184|      <path d="M 1370 285 L 1370 318" fill="none" stroke="#94a3b8" stroke-width="1.5" marker-end="url(#arr-gray)"/>
   185|      <text x="1383" y="304" fill="#94a3b8" font-size="8">smoke</text>
   186|
   187|      <path d="M 330 155 L 330 214" fill="none" stroke="#a78bfa" stroke-width="1.5" marker-end="url(#arr-gray)"/>
   188|      <path d="M 570 155 L 570 214" fill="none" stroke="#a78bfa" stroke-width="1.5" marker-end="url(#arr-gray)"/>
   189|      <text x="450" y="184" text-anchor="middle" fill="#a78bfa" font-size="8">wiki/query</text>
   190|
   191|      <path d="M 1070 155 L 1070 214" fill="none" stroke="#34d399" stroke-width="1.5" marker-end="url(#arr-emerald)"/>
   192|      <text x="1085" y="184" fill="#34d399" font-size="8">CI/CD</text>
   193|
   194|      <path d="M 1150 264 L 1218 264" fill="none" stroke="#34d399" stroke-width="1.5" stroke-dasharray="4,3" marker-end="url(#arr-emerald)"/>
   195|      <text x="1180" y="256" text-anchor="middle" fill="#34d399" font-size="8">pipeline</text>
   196|
   197|      <path d="M 1380 430 L 1380 465" fill="none" stroke="#fb7185" stroke-width="1.6" marker-end="url(#arr-rose)"/>
   198|      <text x="1393" y="452" fill="#fb7185" font-size="8">问题回收</text>
   199|
   200|      <!-- Legend -->
   201|      <text x="40" y="815" fill="#fff" font-size="10" font-weight="700">图例</text>
   202|      <line x1="40" y1="832" x2="74" y2="832" stroke="#22d3ee" stroke-width="1.5" marker-end="url(#arr-cyan)"/><text x="82" y="835" fill="#94a3b8" font-size="8">控制流 / 需求</text>
   203|      <line x1="180" y1="832" x2="214" y2="832" stroke="#34d399" stroke-width="1.5" marker-end="url(#arr-emerald)"/><text x="222" y="835" fill="#94a3b8" font-size="8">Agent / CI-CD</text>
   204|      <line x1="330" y1="832" x2="364" y2="832" stroke="#fbbf24" stroke-width="1.5" marker-end="url(#arr-amber)"/><text x="372" y="835" fill="#94a3b8" font-size="8">Git push/pull / build / deploy</text>
   205|      <line x1="570" y1="832" x2="604" y2="832" stroke="#fb7185" stroke-width="1.5" marker-end="url(#arr-rose)"/><text x="612" y="835" fill="#fb7185" font-size="8">阻塞 / 问题</text>
   206|      <line x1="700" y1="832" x2="734" y2="832" stroke="#94a3b8" stroke-width="1.5" marker-end="url(#arr-gray)"/><text x="742" y="835" fill="#94a3b8" font-size="8">引用 / 查询 / smoke</text>
   207|
   208|      <text x="40" y="868" fill="#64748b" font-size="9">目标：把当前“手工 + 门禁靠记忆”推进到“可审计、可回滚、可自动化”的工作流。</text>
   209|    </svg>